<?xml version="1.0" encoding="utf-8"?>
<!-- Generator: Adobe Illustrator 24.1.2, SVG Export Plug-In . SVG Version: 6.00 Build 0)  -->
<svg version="1.1" id="Layer_1" xmlns="http://www.w3.org/2000/svg" xmlns:xlink="http://www.w3.org/1999/xlink" x="0px" y="0px"
	 viewBox="0 0 283.5 283.5" style="enable-background:new 0 0 283.5 283.5;" xml:space="preserve">
<style type="text/css">
	.st0{fill:#FFFFFF;}
</style>
<g>
	<circle cx="142.5" cy="142.4" r="142.4"/>
	<path class="st0" d="M216.4,126c-1.5,0.1-2.9,0.2-4.4,0.2c-16,0-31-8.1-39.8-21.5v73.3c0,29.9-24.2,54.1-54.1,54.1
		c-29.9,0-54.1-24.2-54.1-54.1s24.2-54.1,54.1-54.1l0,0c1.1,0,2.2,0.1,3.3,0.2v26.7c-1.1-0.1-2.2-0.3-3.3-0.3
		c-15.3,0-27.6,12.4-27.6,27.6c0,15.3,12.4,27.6,27.6,27.6c15.3,0,28.7-12,28.7-27.3l0.3-124.4h25.5c2.4,22.9,20.9,40.8,43.8,42.4
		L216.4,126"/>
</g>
</svg>
