<?xml version="1.0" encoding="utf-8"?>
<!-- Generator: Adobe Illustrator 24.1.2, SVG Export Plug-In . SVG Version: 6.00 Build 0)  -->
<svg version="1.1" id="Layer_1" xmlns="http://www.w3.org/2000/svg" xmlns:xlink="http://www.w3.org/1999/xlink" x="0px" y="0px"
	 viewBox="0 0 283.5 283.5" style="enable-background:new 0 0 283.5 283.5;" xml:space="preserve">
<style type="text/css">
	.st0{clip-path:url(#SVGID_2_);}
	.st1{fill:#FFFFFF;}
</style>
<g>
	<defs>
		<circle id="SVGID_1_" cx="141.7" cy="141.7" r="141.7"/>
	</defs>
	<clipPath id="SVGID_2_">
		<use xlink:href="#SVGID_1_"  style="overflow:visible;"/>
	</clipPath>
	<g class="st0">
		<g>
			<path class="st1" d="M67.4,30.3C51.1,48.7,39.8,69.9,36,94.6c-6.8,43.5,6.8,80.4,37.6,111.2c5.5,5.5,6.2,9.8,1.8,17.2
				c-5.3,8.9-13.3,15-21.8,20.5c-0.9,0.5-1.8,1.2-2.7,1.8c-1.4,1.2-0.5,1.8,0.6,2.3c0,0,0,0,0-0.1c16.6,3.3,32.8,1,48.7-3.8
				c5.4-1.6,10.8-3.3,16.3-4.6c3.7-1,7.6-0.8,11.2,0.5c41.2,14.2,81.9,12.9,122-4.7c16.3-7.2,31.2-17.4,43.8-30
				c0.7-0.7,1.1-1.6,2.3-1.7c0.6,0.9,0.3,1.9,0.3,2.9v38c0.1,21.7-17.3,39.4-39,39.6h-0.3c-23.4,0.1-46.8,0-70.2,0H102h-9.5h-26
				v-0.1c-10.4,0.1-20.9,0.1-31.2-0.3c-15.3-0.6-28-10.1-33.8-23.4v26.3h299V3.1H101C88.5,10.5,77,19.4,67.4,30.3z"/>
			<path class="st1" d="M23.4,3.1H1.5v20.8C5.8,14.1,13.8,6.8,23.4,3.1z"/>
		</g>
		<path d="M52.6,249.2C52.5,249.2,52.5,249.2,52.6,249.2c0.4,0.3,0.8,0.7,1.2,1C53.3,249.9,52.9,249.5,52.6,249.2z"/>
		<path d="M98.7,140.2c9.8,0,19-0.1,28.2,0c5.1,0.1,7.9,2.2,8.5,6.3c0.6,5.1-2.4,8.6-8,8.6c-10.5,0.1-21,0.1-31.5,0.1
			c-3.1,0-6,0.1-9.1-0.1c-3.8-0.2-7.5-1-9.3-4.9s-0.5-7.4,2-10.6c10-12.7,20.1-25.5,30.2-38.3c0.6-0.8,1.2-1.6,1.8-2.3
			c-0.7-1.1-1.6-0.6-2.3-0.7c-7-0.1-14.1,0-21.1-0.1c-1.6,0-3.3-0.2-4.8-0.5c-3.7-0.8-6-4.6-5.1-8.2c0.6-2.5,2.5-4.5,5-5.1
			c1.6-0.4,3.2-0.6,4.8-0.6c11.6-0.1,23.2-0.1,34.8,0c2.1-0.1,4.1,0.2,6.1,0.7c4.4,1.5,6.3,5.6,4.6,9.9c-1.6,3.7-4,6.9-6.5,10.1
			c-8.5,10.9-17,21.6-25.5,32.4C100.4,137.9,99.7,138.8,98.7,140.2L98.7,140.2z"/>
		<path d="M174.1,106c1.6-2,3.2-3.9,5.9-4.4c5.1-1,9.9,2.3,10,7.5c0.2,13,0.1,26,0,39c0,3.4-2.2,6.4-5.4,7.3c-3.3,1.2-7,0.3-9.1-2.5
			c-1.1-1.4-1.6-1.6-3.1-0.4c-5.9,4.8-12.6,5.7-19.8,3.3C141,152,136.3,143,135,132c-1.4-11.9,2.6-22,13.3-28.3
			C157,98.5,166,98.9,174.1,106L174.1,106z M151.1,129.7c0.1,2.9,1,5.6,2.7,7.9c3.5,4.7,10.2,5.7,15,2.1c0.8-0.6,1.5-1.3,2.1-2.1
			c3.6-4.9,3.6-13.1,0-18c-1.8-2.5-4.7-4-7.7-4.1C156,115.1,151,120.6,151.1,129.7z M219.2,130.1c-0.5-16.7,10.5-29.2,26.1-29.6
			c16.6-0.5,28.7,10.6,29.2,26.8c0.5,16.4-9.6,28.1-25.1,29.6C232.4,158.7,218.9,146.4,219.2,130.1L219.2,130.1z M235.5,128.6
			c-0.1,3.3,0.8,6.4,2.8,9.1c3.6,4.7,10.3,5.6,15,2c0.7-0.5,1.3-1.2,1.9-1.8c3.8-4.9,3.8-13.3,0.1-18.2c-1.8-2.5-4.7-4-7.7-4.1
			C240.4,115.1,235.5,120.4,235.5,128.6z M213.4,117.2c0,10.1,0.1,20.2,0,30.2c0.1,4.6-3.6,8.5-8.2,8.6c-0.8,0-1.6-0.1-2.4-0.3
			c-3.3-0.8-5.7-4.3-5.7-8.4V95.7c0-3.1-0.1-6,0-9.1c0.1-5,3.3-8.3,8.1-8.3c4.9-0.1,8.3,3.2,8.3,8.4
			C213.5,96.9,213.4,107.1,213.4,117.2z"/>
		<path d="M295.8,203.2c-1.2,0.1-1.6,1-2.3,1.7c-12.6,12.6-27.5,22.8-43.8,30c-40.1,17.6-80.8,18.9-122,4.7
			c-3.6-1.3-7.5-1.5-11.2-0.5c-5.5,1.3-10.9,3-16.3,4.6c-15.9,4.8-32.1,7.1-48.7,3.8c0,0,0,0,0,0.1c-1.2-0.5-2-1.1-0.6-2.3
			c0.9-0.6,1.8-1.3,2.7-1.8c8.5-5.5,16.5-11.6,21.8-20.5c4.4-7.4,3.7-11.7-1.8-17.2C42.8,175,29.2,138.1,36,94.6
			c3.8-24.7,15.1-45.9,31.4-64.3C77.3,19.1,89.1,10,102,2.5c0.7-0.5,1.9-0.6,2-1.8c-0.2-0.7-0.7-0.5-1.1-0.5C81,0.2,59-0.3,37.2,0.3
			c-20.9,0.6-39,16.8-39,40c0.1,67.9,0,135.7,0,203.5c0,21,16.1,38.7,37.1,39.5c10.4,0.4,20.8,0.4,31.2,0.3v0.1h26h9.5h84.6
			c23.4,0,46.8,0.1,70.2,0h0.3c21.7-0.2,39.1-17.9,39-39.6v-38C296.1,205.1,296.4,204.1,295.8,203.2z"/>
	</g>
</g>
</svg>
